# xmcd
#
# Track frame offsets:
#	150
#	16764
#	33661
#	45441
#	58380
#	73902
#	92099
#	106957
#	119541
#	141753
#
# Disc length: 2111 seconds
#
# Revision: 2
# Processed by: cddbd v1.5.2PL0 Copyright (c) Steve Scherf et al.
# Submitted via: EasyCDDAExtractor 15.3.0.1
#
DISCID=8d083d0a
DTITLE=Paulina Rubio - Brava!
DYEAR=2011
DGENRE=Latin
TTITLE0=Me Gustas Tanto
TTITLE1=All Around The World
TTITLE2=Casate Con Tu Mama
TTITLE3=Olvidate De Mi
TTITLE4=Sabes Que Te Amo
TTITLE5=Hoy Me Toca A Mi (Featuring Taboo From The Black Eyed Peas)
TTITLE6=Heat Of The Night
TTITLE7=Me Voy
TTITLE8=Que Estuvieras Aqui
TTITLE9=Volvamos A Empezar
EXTD=
EXTT0=
EXTT1=
EXTT2=
EXTT3=
EXTT4=
EXTT5=
EXTT6=
EXTT7=
EXTT8=
EXTT9=
PLAYORDER=
